# xmcd
#
# Track frame offsets: 
#        150
#        14650
#        46470
#
# Disc length: 844 seconds
#
# Revision: 0
# Processed by: cddbd v1.5.2PL0 Copyright (c) Steve Scherf et al.
# Submitted via: ExactAudioCopy v1.0b3
#
DISCID=21034a03
DTITLE=Pink - Get The Party Started
DYEAR=2002
DGENRE=R&B
TTITLE0=Get The Party Started (Radio Mix)
TTITLE1=Get The Party Started (K5 Werk Kraft Mix Featuring Spoonface)
TTITLE2=Get The Party Started (P!nk Noise Disco Mix (Radio Edit))
EXTD=
EXTT0=
EXTT1=
EXTT2=
PLAYORDER=
